<mxfile host="multicloud-diagrams" agent="PIP package multicloud-diagrams. Generate resources in draw.io compatible format for Cloud infrastructure. Copyrights @ Roman Tsypuk 2023. MIT license." type="MultiCloud">
	<diagram id="diagram_1" name="AWS components">
		<mxGraphModel dx="1015" dy="661" grid="1" gridSize="10" guides="1" tooltips="1" connect="1" arrows="1" fold="1" page="1" pageScale="1" pageWidth="850" pageHeight="1100" math="0" shadow="1">
			<root>
				<mxCell id="0"/>
				<mxCell id="1" parent="0"/>
				<mxCell id="vertex:apache_flink:arn:aws:apache_flink:us-west-1:123456789012:apache_flink/123" value="&lt;b&gt;Name&lt;/b&gt;: Registry for images&lt;BR&gt;&lt;b&gt;ARN&lt;/b&gt;: arn:aws:apache_flink:us-west-1:123456789012:apache_flink/123&lt;BR&gt;-----------&lt;BR&gt;&lt;b&gt;ApplicationName&lt;/b&gt;: DemoAppProcesor&lt;BR&gt;&lt;b&gt;RuntimeEnvironment&lt;/b&gt;: FLINK-1_8&lt;BR&gt;&lt;b&gt;InputSchema&lt;/b&gt;: {'RecordFormat': {'RecordFormatType': 'JSON'}}&lt;BR&gt;&lt;b&gt;FlinkApplicationConfiguration&lt;/b&gt;: {'CheckpointConfiguration': {'ConfigurationType': 'DEFAULT', 'CheckpointingEnabled': True, 'CheckpointInterval': 60, 'MinPauseBetweenCheckpoints': 10}, 'ParallelismConfiguration': {'ConfigurationType': 'DEFAULT', 'Parallelism': 3, 'ParallelismPerKPU': 10, 'AutoScalingEnabled': True}}" style="sketch=0;outlineConnect=0;fontColor=#232F3E;fillColor=#8C4FFF;strokeColor=#ffffff;dashed=0;verticalLabelPosition=bottom;verticalAlign=top;align=left;html=1;fontSize=12;fontStyle=0;aspect=fixed;shape=mxgraph.aws4.resourceIcon;resIcon=mxgraph.aws4.managed_service_for_apache_flink;" parent="1" vertex="1">
					<mxGeometry width="78" height="78" as="geometry"/>
				</mxCell>
			</root>
		</mxGraphModel>
	</diagram>
</mxfile>